<svg xmlns="http://www.w3.org/2000/svg" viewBox="0 0 400 400">
  <rect width="400" height="400" fill="#F2F0EA"/>
  <path d="M196 90 L160 108 L128 94 C104 100 84 116 68 142 L44 186 L90 208 L90 328 Q90 340 102 340 L188 340 L188 150 Z"
        fill="#191919" stroke="#000000" stroke-width="4" stroke-linejoin="round"/>
  <path d="M204 90 L240 108 L272 94 C296 100 316 116 332 142 L356 186 L310 208 L310 328 Q310 340 298 340 L212 340 L212 150 Z"
        fill="#232323" stroke="#000000" stroke-width="4" stroke-linejoin="round"/>
  <path d="M188 150 L212 150 L212 340 L188 340 Z" fill="#0d0d0d"/>
  <path d="M181 92 L200 118 L219 92" fill="none" stroke="#000000" stroke-width="4" stroke-linejoin="round"/>
  <circle cx="200" cy="200" r="4" fill="#4a4a4a"/>
  <circle cx="200" cy="240" r="4" fill="#4a4a4a"/>
  <circle cx="200" cy="280" r="4" fill="#4a4a4a"/>
  <path d="M68 142 L90 208" fill="none" stroke="#000000" stroke-width="3" opacity="0.6"/>
  <path d="M332 142 L310 208" fill="none" stroke="#000000" stroke-width="3" opacity="0.6"/>
  <rect x="70" y="230" width="30" height="18" rx="3" fill="none" stroke="#4a4a4a" stroke-width="3"/>
  <rect x="300" y="230" width="30" height="18" rx="3" fill="none" stroke="#4a4a4a" stroke-width="3"/>
</svg>
